<mxfile host="app.diagrams.net" modified="2020-12-05T15:26:47.978Z" agent="5.0 (Windows NT 10.0; Win64; x64) AppleWebKit/537.36 (KHTML, like Gecko) Chrome/86.0.4240.198 Safari/537.36" etag="Cayxu5oYomQaaQwoMZhl" version="13.10.9" type="github">
  <diagram id="kF0KKFOH6UmAXb5D1hOX" name="Page-1">
    <mxGraphModel dx="1346" dy="877" grid="1" gridSize="10" guides="1" tooltips="1" connect="1" arrows="1" fold="1" page="1" pageScale="1" pageWidth="1169" pageHeight="827" math="0" shadow="0">
      <root>
        <mxCell id="0" />
        <mxCell id="1" parent="0" />
        <mxCell id="xMDHrjp0SGLHtv5pF6LK-159" style="edgeStyle=orthogonalEdgeStyle;orthogonalLoop=1;jettySize=auto;html=1;exitX=0.75;exitY=0;exitDx=0;exitDy=0;entryX=0.5;entryY=1;entryDx=0;entryDy=0;" edge="1" parent="1" source="xMDHrjp0SGLHtv5pF6LK-1" target="xMDHrjp0SGLHtv5pF6LK-158">
          <mxGeometry relative="1" as="geometry" />
        </mxCell>
        <mxCell id="xMDHrjp0SGLHtv5pF6LK-160" value="Dig&lt;br&gt;X3" style="edgeLabel;html=1;align=center;verticalAlign=middle;resizable=0;points=[];" vertex="1" connectable="0" parent="xMDHrjp0SGLHtv5pF6LK-159">
          <mxGeometry x="-0.1506" relative="1" as="geometry">
            <mxPoint as="offset" />
          </mxGeometry>
        </mxCell>
        <mxCell id="xMDHrjp0SGLHtv5pF6LK-1" value="Microcontrolador" style="rounded=1;whiteSpace=wrap;html=1;" vertex="1" parent="1">
          <mxGeometry x="120" y="400" width="280" height="280" as="geometry" />
        </mxCell>
        <mxCell id="xMDHrjp0SGLHtv5pF6LK-2" value="" style="rounded=0;whiteSpace=wrap;html=1;" vertex="1" parent="1">
          <mxGeometry x="600" y="160" width="60" height="60" as="geometry" />
        </mxCell>
        <mxCell id="xMDHrjp0SGLHtv5pF6LK-114" style="edgeStyle=orthogonalEdgeStyle;orthogonalLoop=1;jettySize=auto;html=1;exitX=0;exitY=0.25;exitDx=0;exitDy=0;entryX=0.851;entryY=-0.001;entryDx=0;entryDy=0;entryPerimeter=0;" edge="1" parent="1" source="xMDHrjp0SGLHtv5pF6LK-4" target="xMDHrjp0SGLHtv5pF6LK-1">
          <mxGeometry relative="1" as="geometry" />
        </mxCell>
        <mxCell id="xMDHrjp0SGLHtv5pF6LK-115" value="Dig. (InterrupciÃ³n)" style="edgeLabel;html=1;align=center;verticalAlign=middle;resizable=0;points=[];" vertex="1" connectable="0" parent="xMDHrjp0SGLHtv5pF6LK-114">
          <mxGeometry x="0.2189" relative="1" as="geometry">
            <mxPoint x="4.17" as="offset" />
          </mxGeometry>
        </mxCell>
        <mxCell id="xMDHrjp0SGLHtv5pF6LK-4" value="I2C&lt;br&gt;IMU" style="rounded=0;whiteSpace=wrap;html=1;" vertex="1" parent="1">
          <mxGeometry x="600" y="320" width="60" height="60" as="geometry" />
        </mxCell>
        <mxCell id="xMDHrjp0SGLHtv5pF6LK-5" value="" style="rounded=0;whiteSpace=wrap;html=1;" vertex="1" parent="1">
          <mxGeometry x="600" y="240" width="60" height="60" as="geometry" />
        </mxCell>
        <mxCell id="xMDHrjp0SGLHtv5pF6LK-6" value="" style="rounded=0;whiteSpace=wrap;html=1;" vertex="1" parent="1">
          <mxGeometry x="600" y="400" width="60" height="60" as="geometry" />
        </mxCell>
        <mxCell id="xMDHrjp0SGLHtv5pF6LK-10" value="" style="endArrow=classic;startArrow=classic;html=1;exitX=1;exitY=0.25;exitDx=0;exitDy=0;entryX=0;entryY=0.5;entryDx=0;entryDy=0;edgeStyle=orthogonalEdgeStyle;" edge="1" parent="1" source="xMDHrjp0SGLHtv5pF6LK-1">
          <mxGeometry width="50" height="50" relative="1" as="geometry">
            <mxPoint x="530" y="560" as="sourcePoint" />
            <mxPoint x="600" y="190" as="targetPoint" />
            <Array as="points">
              <mxPoint x="520" y="470" />
              <mxPoint x="520" y="190" />
            </Array>
          </mxGeometry>
        </mxCell>
        <mxCell id="xMDHrjp0SGLHtv5pF6LK-11" value="" style="endArrow=classic;startArrow=classic;html=1;entryX=0;entryY=0.5;entryDx=0;entryDy=0;exitX=1;exitY=0.25;exitDx=0;exitDy=0;edgeStyle=orthogonalEdgeStyle;" edge="1" parent="1" source="xMDHrjp0SGLHtv5pF6LK-1" target="xMDHrjp0SGLHtv5pF6LK-4">
          <mxGeometry width="50" height="50" relative="1" as="geometry">
            <mxPoint x="530" y="560" as="sourcePoint" />
            <mxPoint x="580" y="510" as="targetPoint" />
            <Array as="points">
              <mxPoint x="520" y="470" />
              <mxPoint x="520" y="350" />
            </Array>
          </mxGeometry>
        </mxCell>
        <mxCell id="xMDHrjp0SGLHtv5pF6LK-12" value="" style="endArrow=classic;startArrow=classic;html=1;exitX=1;exitY=0.25;exitDx=0;exitDy=0;entryX=0;entryY=0.5;entryDx=0;entryDy=0;edgeStyle=orthogonalEdgeStyle;" edge="1" parent="1" source="xMDHrjp0SGLHtv5pF6LK-1" target="xMDHrjp0SGLHtv5pF6LK-5">
          <mxGeometry width="50" height="50" relative="1" as="geometry">
            <mxPoint x="530" y="560" as="sourcePoint" />
            <mxPoint x="580" y="510" as="targetPoint" />
            <Array as="points">
              <mxPoint x="520" y="470" />
              <mxPoint x="520" y="270" />
            </Array>
          </mxGeometry>
        </mxCell>
        <mxCell id="xMDHrjp0SGLHtv5pF6LK-13" value="" style="endArrow=classic;startArrow=classic;html=1;entryX=0;entryY=0.5;entryDx=0;entryDy=0;edgeStyle=orthogonalEdgeStyle;exitX=1;exitY=0.25;exitDx=0;exitDy=0;" edge="1" parent="1" source="xMDHrjp0SGLHtv5pF6LK-1" target="xMDHrjp0SGLHtv5pF6LK-6">
          <mxGeometry width="50" height="50" relative="1" as="geometry">
            <mxPoint x="440" y="500" as="sourcePoint" />
            <mxPoint x="580" y="510" as="targetPoint" />
            <Array as="points">
              <mxPoint x="520" y="470" />
              <mxPoint x="520" y="430" />
            </Array>
          </mxGeometry>
        </mxCell>
        <mxCell id="xMDHrjp0SGLHtv5pF6LK-16" value="I2C&lt;br&gt;Memory" style="text;html=1;strokeColor=none;fillColor=none;align=center;verticalAlign=middle;whiteSpace=wrap;rounded=0;" vertex="1" parent="1">
          <mxGeometry x="610" y="180" width="40" height="20" as="geometry" />
        </mxCell>
        <mxCell id="xMDHrjp0SGLHtv5pF6LK-17" value="I2C&lt;br&gt;RTC" style="text;html=1;strokeColor=none;fillColor=none;align=center;verticalAlign=middle;whiteSpace=wrap;rounded=0;" vertex="1" parent="1">
          <mxGeometry x="610" y="260" width="40" height="20" as="geometry" />
        </mxCell>
        <mxCell id="xMDHrjp0SGLHtv5pF6LK-18" value="I2C&lt;br&gt;Pressure" style="text;html=1;strokeColor=none;fillColor=none;align=center;verticalAlign=middle;whiteSpace=wrap;rounded=0;" vertex="1" parent="1">
          <mxGeometry x="610" y="420" width="40" height="20" as="geometry" />
        </mxCell>
        <mxCell id="xMDHrjp0SGLHtv5pF6LK-19" value="" style="rounded=0;whiteSpace=wrap;html=1;" vertex="1" parent="1">
          <mxGeometry x="670" y="611" width="60" height="60" as="geometry" />
        </mxCell>
        <mxCell id="xMDHrjp0SGLHtv5pF6LK-20" value="I2C&lt;br&gt;Bus&lt;br&gt;Repeater" style="text;html=1;strokeColor=none;fillColor=none;align=center;verticalAlign=middle;whiteSpace=wrap;rounded=0;" vertex="1" parent="1">
          <mxGeometry x="680" y="631" width="40" height="20" as="geometry" />
        </mxCell>
        <mxCell id="xMDHrjp0SGLHtv5pF6LK-21" value="" style="rounded=0;whiteSpace=wrap;html=1;" vertex="1" parent="1">
          <mxGeometry x="670" y="810" width="60" height="60" as="geometry" />
        </mxCell>
        <mxCell id="xMDHrjp0SGLHtv5pF6LK-23" value="" style="rounded=0;whiteSpace=wrap;html=1;" vertex="1" parent="1">
          <mxGeometry x="670" y="1010" width="60" height="60" as="geometry" />
        </mxCell>
        <mxCell id="xMDHrjp0SGLHtv5pF6LK-24" value="I2C&lt;br&gt;Bus&lt;br&gt;Repeater" style="text;html=1;strokeColor=none;fillColor=none;align=center;verticalAlign=middle;whiteSpace=wrap;rounded=0;" vertex="1" parent="1">
          <mxGeometry x="680" y="1030" width="40" height="20" as="geometry" />
        </mxCell>
        <mxCell id="xMDHrjp0SGLHtv5pF6LK-25" value="" style="endArrow=classic;startArrow=classic;html=1;entryX=0;entryY=0.75;entryDx=0;entryDy=0;edgeStyle=orthogonalEdgeStyle;" edge="1" parent="1" target="xMDHrjp0SGLHtv5pF6LK-19">
          <mxGeometry width="50" height="50" relative="1" as="geometry">
            <mxPoint x="400" y="470" as="sourcePoint" />
            <mxPoint x="650" y="580" as="targetPoint" />
            <Array as="points">
              <mxPoint x="520" y="470" />
              <mxPoint x="520" y="656" />
            </Array>
          </mxGeometry>
        </mxCell>
        <mxCell id="xMDHrjp0SGLHtv5pF6LK-26" value="" style="endArrow=classic;startArrow=classic;html=1;entryX=0;entryY=0.5;entryDx=0;entryDy=0;edgeStyle=orthogonalEdgeStyle;exitX=1;exitY=0.25;exitDx=0;exitDy=0;" edge="1" parent="1" source="xMDHrjp0SGLHtv5pF6LK-1" target="xMDHrjp0SGLHtv5pF6LK-21">
          <mxGeometry width="50" height="50" relative="1" as="geometry">
            <mxPoint x="440" y="500" as="sourcePoint" />
            <mxPoint x="650" y="660" as="targetPoint" />
            <Array as="points">
              <mxPoint x="520" y="470" />
              <mxPoint x="520" y="840" />
            </Array>
          </mxGeometry>
        </mxCell>
        <mxCell id="xMDHrjp0SGLHtv5pF6LK-107" value="I2C" style="edgeLabel;html=1;align=center;verticalAlign=middle;resizable=0;points=[];" vertex="1" connectable="0" parent="xMDHrjp0SGLHtv5pF6LK-26">
          <mxGeometry x="0.7229" relative="1" as="geometry">
            <mxPoint as="offset" />
          </mxGeometry>
        </mxCell>
        <mxCell id="xMDHrjp0SGLHtv5pF6LK-27" value="" style="endArrow=classic;startArrow=classic;html=1;exitX=1;exitY=0.25;exitDx=0;exitDy=0;entryX=0;entryY=0.5;entryDx=0;entryDy=0;edgeStyle=orthogonalEdgeStyle;" edge="1" parent="1" source="xMDHrjp0SGLHtv5pF6LK-1" target="xMDHrjp0SGLHtv5pF6LK-23">
          <mxGeometry width="50" height="50" relative="1" as="geometry">
            <mxPoint x="510" y="610" as="sourcePoint" />
            <mxPoint x="560" y="560" as="targetPoint" />
            <Array as="points">
              <mxPoint x="520" y="470" />
              <mxPoint x="520" y="1040" />
            </Array>
          </mxGeometry>
        </mxCell>
        <mxCell id="xMDHrjp0SGLHtv5pF6LK-32" value="" style="endArrow=classic;startArrow=classic;html=1;entryX=-0.011;entryY=0.798;entryDx=0;entryDy=0;entryPerimeter=0;" edge="1" parent="1" target="xMDHrjp0SGLHtv5pF6LK-37">
          <mxGeometry width="50" height="50" relative="1" as="geometry">
            <mxPoint x="730" y="1040" as="sourcePoint" />
            <mxPoint x="780" y="1040" as="targetPoint" />
          </mxGeometry>
        </mxCell>
        <mxCell id="xMDHrjp0SGLHtv5pF6LK-33" value="" style="endArrow=classic;startArrow=classic;html=1;entryX=0;entryY=0.75;entryDx=0;entryDy=0;exitX=1;exitY=0.5;exitDx=0;exitDy=0;" edge="1" parent="1" source="xMDHrjp0SGLHtv5pF6LK-21" target="xMDHrjp0SGLHtv5pF6LK-36">
          <mxGeometry width="50" height="50" relative="1" as="geometry">
            <mxPoint x="740" y="841" as="sourcePoint" />
            <mxPoint x="780" y="840" as="targetPoint" />
          </mxGeometry>
        </mxCell>
        <mxCell id="xMDHrjp0SGLHtv5pF6LK-34" value="" style="endArrow=classic;startArrow=classic;html=1;entryX=-0.005;entryY=0.845;entryDx=0;entryDy=0;exitX=1;exitY=0.5;exitDx=0;exitDy=0;entryPerimeter=0;" edge="1" parent="1" source="xMDHrjp0SGLHtv5pF6LK-19">
          <mxGeometry width="50" height="50" relative="1" as="geometry">
            <mxPoint x="740" y="641" as="sourcePoint" />
            <mxPoint x="799.2" y="642.25" as="targetPoint" />
          </mxGeometry>
        </mxCell>
        <mxCell id="xMDHrjp0SGLHtv5pF6LK-35" value="CAM 1" style="rounded=0;whiteSpace=wrap;html=1;" vertex="1" parent="1">
          <mxGeometry x="800" y="480" width="100" height="200" as="geometry" />
        </mxCell>
        <mxCell id="xMDHrjp0SGLHtv5pF6LK-36" value="CAM 2" style="rounded=0;whiteSpace=wrap;html=1;" vertex="1" parent="1">
          <mxGeometry x="800" y="730" width="100" height="150" as="geometry" />
        </mxCell>
        <mxCell id="xMDHrjp0SGLHtv5pF6LK-37" value="CAM 3" style="rounded=0;whiteSpace=wrap;html=1;" vertex="1" parent="1">
          <mxGeometry x="800" y="920" width="100" height="150" as="geometry" />
        </mxCell>
        <mxCell id="xMDHrjp0SGLHtv5pF6LK-41" value="PS 3" style="rounded=1;whiteSpace=wrap;html=1;" vertex="1" parent="1">
          <mxGeometry x="600" y="950" width="50" height="50" as="geometry" />
        </mxCell>
        <mxCell id="xMDHrjp0SGLHtv5pF6LK-42" value="PS 2" style="rounded=1;whiteSpace=wrap;html=1;" vertex="1" parent="1">
          <mxGeometry x="600" y="750" width="50" height="50" as="geometry" />
        </mxCell>
        <mxCell id="xMDHrjp0SGLHtv5pF6LK-43" value="PS 1" style="rounded=1;whiteSpace=wrap;html=1;" vertex="1" parent="1">
          <mxGeometry x="600" y="546" width="50" height="50" as="geometry" />
        </mxCell>
        <mxCell id="xMDHrjp0SGLHtv5pF6LK-44" value="" style="endArrow=classic;html=1;entryX=0;entryY=0.5;entryDx=0;entryDy=0;" edge="1" parent="1" target="xMDHrjp0SGLHtv5pF6LK-43">
          <mxGeometry relative="1" as="geometry">
            <mxPoint x="402" y="571" as="sourcePoint" />
            <mxPoint x="750" y="670" as="targetPoint" />
          </mxGeometry>
        </mxCell>
        <mxCell id="xMDHrjp0SGLHtv5pF6LK-45" value="Dig." style="edgeLabel;resizable=0;html=1;align=center;verticalAlign=middle;" connectable="0" vertex="1" parent="xMDHrjp0SGLHtv5pF6LK-44">
          <mxGeometry relative="1" as="geometry">
            <mxPoint x="-46.17" as="offset" />
          </mxGeometry>
        </mxCell>
        <mxCell id="xMDHrjp0SGLHtv5pF6LK-46" value="V. Bat." style="rounded=0;whiteSpace=wrap;html=1;" vertex="1" parent="1">
          <mxGeometry x="440" y="1080" width="80" height="40" as="geometry" />
        </mxCell>
        <mxCell id="xMDHrjp0SGLHtv5pF6LK-49" value="" style="endArrow=none;dashed=1;html=1;dashPattern=1 3;strokeWidth=2;exitX=0.75;exitY=0;exitDx=0;exitDy=0;entryX=0;entryY=0.75;entryDx=0;entryDy=0;edgeStyle=orthogonalEdgeStyle;" edge="1" parent="1" source="xMDHrjp0SGLHtv5pF6LK-46" target="xMDHrjp0SGLHtv5pF6LK-43">
          <mxGeometry width="50" height="50" relative="1" as="geometry">
            <mxPoint x="670" y="690" as="sourcePoint" />
            <mxPoint x="720" y="640" as="targetPoint" />
            <Array as="points">
              <mxPoint x="500" y="584" />
            </Array>
          </mxGeometry>
        </mxCell>
        <mxCell id="xMDHrjp0SGLHtv5pF6LK-110" value="V.Bat" style="edgeLabel;html=1;align=center;verticalAlign=middle;resizable=0;points=[];" vertex="1" connectable="0" parent="xMDHrjp0SGLHtv5pF6LK-49">
          <mxGeometry x="0.9163" relative="1" as="geometry">
            <mxPoint as="offset" />
          </mxGeometry>
        </mxCell>
        <mxCell id="xMDHrjp0SGLHtv5pF6LK-50" value="" style="endArrow=none;dashed=1;html=1;dashPattern=1 3;strokeWidth=2;entryX=0;entryY=0.75;entryDx=0;entryDy=0;exitX=0.75;exitY=0;exitDx=0;exitDy=0;edgeStyle=orthogonalEdgeStyle;" edge="1" parent="1" source="xMDHrjp0SGLHtv5pF6LK-46" target="xMDHrjp0SGLHtv5pF6LK-42">
          <mxGeometry width="50" height="50" relative="1" as="geometry">
            <mxPoint x="670" y="1010" as="sourcePoint" />
            <mxPoint x="720" y="960" as="targetPoint" />
            <Array as="points">
              <mxPoint x="500" y="788" />
            </Array>
          </mxGeometry>
        </mxCell>
        <mxCell id="xMDHrjp0SGLHtv5pF6LK-51" value="" style="endArrow=none;dashed=1;html=1;dashPattern=1 3;strokeWidth=2;exitX=0.75;exitY=0;exitDx=0;exitDy=0;entryX=0;entryY=0.75;entryDx=0;entryDy=0;edgeStyle=orthogonalEdgeStyle;" edge="1" parent="1" source="xMDHrjp0SGLHtv5pF6LK-46" target="xMDHrjp0SGLHtv5pF6LK-41">
          <mxGeometry width="50" height="50" relative="1" as="geometry">
            <mxPoint x="670" y="910" as="sourcePoint" />
            <mxPoint x="720" y="860" as="targetPoint" />
            <Array as="points">
              <mxPoint x="500" y="1110" />
              <mxPoint x="500" y="988" />
            </Array>
          </mxGeometry>
        </mxCell>
        <mxCell id="xMDHrjp0SGLHtv5pF6LK-106" value="V.Bat" style="edgeLabel;html=1;align=center;verticalAlign=middle;resizable=0;points=[];" vertex="1" connectable="0" parent="xMDHrjp0SGLHtv5pF6LK-51">
          <mxGeometry x="0.7228" y="2" relative="1" as="geometry">
            <mxPoint as="offset" />
          </mxGeometry>
        </mxCell>
        <mxCell id="xMDHrjp0SGLHtv5pF6LK-56" value="I2C" style="text;html=1;align=center;verticalAlign=middle;resizable=0;points=[];autosize=1;" vertex="1" parent="1">
          <mxGeometry x="440" y="450" width="30" height="20" as="geometry" />
        </mxCell>
        <mxCell id="xMDHrjp0SGLHtv5pF6LK-58" value="LDO" style="rounded=0;whiteSpace=wrap;html=1;" vertex="1" parent="1">
          <mxGeometry x="670" y="571" width="30" height="25" as="geometry" />
        </mxCell>
        <mxCell id="xMDHrjp0SGLHtv5pF6LK-22" value="I2C&lt;br&gt;Bus&lt;br&gt;Repeater" style="text;html=1;strokeColor=none;fillColor=none;align=center;verticalAlign=middle;whiteSpace=wrap;rounded=0;" vertex="1" parent="1">
          <mxGeometry x="680" y="830" width="40" height="20" as="geometry" />
        </mxCell>
        <mxCell id="xMDHrjp0SGLHtv5pF6LK-61" value="LDO" style="rounded=0;whiteSpace=wrap;html=1;" vertex="1" parent="1">
          <mxGeometry x="670" y="775" width="30" height="25" as="geometry" />
        </mxCell>
        <mxCell id="xMDHrjp0SGLHtv5pF6LK-62" value="LDO" style="rounded=0;whiteSpace=wrap;html=1;" vertex="1" parent="1">
          <mxGeometry x="670" y="975" width="30" height="25" as="geometry" />
        </mxCell>
        <mxCell id="xMDHrjp0SGLHtv5pF6LK-68" value="" style="endArrow=none;dashed=1;html=1;dashPattern=1 3;strokeWidth=2;exitX=1;exitY=0.25;exitDx=0;exitDy=0;entryX=0.006;entryY=0.287;entryDx=0;entryDy=0;entryPerimeter=0;" edge="1" parent="1" source="xMDHrjp0SGLHtv5pF6LK-41" target="xMDHrjp0SGLHtv5pF6LK-37">
          <mxGeometry width="50" height="50" relative="1" as="geometry">
            <mxPoint x="710" y="910" as="sourcePoint" />
            <mxPoint x="760" y="860" as="targetPoint" />
          </mxGeometry>
        </mxCell>
        <mxCell id="xMDHrjp0SGLHtv5pF6LK-70" value="" style="endArrow=none;dashed=1;html=1;dashPattern=1 3;strokeWidth=2;exitX=1;exitY=0.5;exitDx=0;exitDy=0;entryX=0.75;entryY=0;entryDx=0;entryDy=0;edgeStyle=orthogonalEdgeStyle;" edge="1" parent="1" source="xMDHrjp0SGLHtv5pF6LK-58" target="xMDHrjp0SGLHtv5pF6LK-19">
          <mxGeometry width="50" height="50" relative="1" as="geometry">
            <mxPoint x="740" y="661" as="sourcePoint" />
            <mxPoint x="790" y="611" as="targetPoint" />
          </mxGeometry>
        </mxCell>
        <mxCell id="xMDHrjp0SGLHtv5pF6LK-72" value="" style="endArrow=classic;html=1;entryX=0;entryY=0.25;entryDx=0;entryDy=0;exitX=1;exitY=0.475;exitDx=0;exitDy=0;exitPerimeter=0;" edge="1" parent="1" source="xMDHrjp0SGLHtv5pF6LK-1" target="xMDHrjp0SGLHtv5pF6LK-35">
          <mxGeometry relative="1" as="geometry">
            <mxPoint x="441" y="540" as="sourcePoint" />
            <mxPoint x="780" y="630" as="targetPoint" />
          </mxGeometry>
        </mxCell>
        <mxCell id="xMDHrjp0SGLHtv5pF6LK-73" value="Dig" style="edgeLabel;resizable=0;html=1;align=center;verticalAlign=middle;" connectable="0" vertex="1" parent="xMDHrjp0SGLHtv5pF6LK-72">
          <mxGeometry relative="1" as="geometry">
            <mxPoint x="-144.99" as="offset" />
          </mxGeometry>
        </mxCell>
        <mxCell id="xMDHrjp0SGLHtv5pF6LK-74" value="" style="endArrow=classic;html=1;exitX=1.003;exitY=0.436;exitDx=0;exitDy=0;exitPerimeter=0;entryX=-0.033;entryY=0.198;entryDx=0;entryDy=0;entryPerimeter=0;" edge="1" parent="1" source="xMDHrjp0SGLHtv5pF6LK-1" target="xMDHrjp0SGLHtv5pF6LK-35">
          <mxGeometry relative="1" as="geometry">
            <mxPoint x="440.84000000000015" y="522.9999999999998" as="sourcePoint" />
            <mxPoint x="760" y="520" as="targetPoint" />
          </mxGeometry>
        </mxCell>
        <mxCell id="xMDHrjp0SGLHtv5pF6LK-75" value="Dig" style="edgeLabel;resizable=0;html=1;align=center;verticalAlign=middle;" connectable="0" vertex="1" parent="xMDHrjp0SGLHtv5pF6LK-74">
          <mxGeometry relative="1" as="geometry">
            <mxPoint x="-144.17" as="offset" />
          </mxGeometry>
        </mxCell>
        <mxCell id="xMDHrjp0SGLHtv5pF6LK-76" value="" style="endArrow=classic;html=1;exitX=-0.008;exitY=0.098;exitDx=0;exitDy=0;exitPerimeter=0;entryX=1.003;entryY=0.35;entryDx=0;entryDy=0;entryPerimeter=0;" edge="1" parent="1" source="xMDHrjp0SGLHtv5pF6LK-35" target="xMDHrjp0SGLHtv5pF6LK-1">
          <mxGeometry relative="1" as="geometry">
            <mxPoint x="450.84000000000015" y="532.9999999999998" as="sourcePoint" />
            <mxPoint x="770" y="530" as="targetPoint" />
          </mxGeometry>
        </mxCell>
        <mxCell id="xMDHrjp0SGLHtv5pF6LK-77" value="Dig (Feedback)" style="edgeLabel;resizable=0;html=1;align=center;verticalAlign=middle;" connectable="0" vertex="1" parent="xMDHrjp0SGLHtv5pF6LK-76">
          <mxGeometry relative="1" as="geometry">
            <mxPoint x="9.959999999999994" as="offset" />
          </mxGeometry>
        </mxCell>
        <mxCell id="xMDHrjp0SGLHtv5pF6LK-78" value="" style="endArrow=none;dashed=1;html=1;dashPattern=1 3;strokeWidth=2;exitX=1;exitY=0.25;exitDx=0;exitDy=0;entryX=0.5;entryY=0;entryDx=0;entryDy=0;edgeStyle=orthogonalEdgeStyle;" edge="1" parent="1" source="xMDHrjp0SGLHtv5pF6LK-43" target="xMDHrjp0SGLHtv5pF6LK-58">
          <mxGeometry width="50" height="50" relative="1" as="geometry">
            <mxPoint x="590" y="730" as="sourcePoint" />
            <mxPoint x="640" y="680" as="targetPoint" />
          </mxGeometry>
        </mxCell>
        <mxCell id="xMDHrjp0SGLHtv5pF6LK-79" value="" style="endArrow=none;dashed=1;html=1;dashPattern=1 3;strokeWidth=2;exitX=1;exitY=0.25;exitDx=0;exitDy=0;edgeStyle=orthogonalEdgeStyle;entryX=0.017;entryY=0.394;entryDx=0;entryDy=0;entryPerimeter=0;" edge="1" parent="1" source="xMDHrjp0SGLHtv5pF6LK-43" target="xMDHrjp0SGLHtv5pF6LK-35">
          <mxGeometry width="50" height="50" relative="1" as="geometry">
            <mxPoint x="590" y="730" as="sourcePoint" />
            <mxPoint x="640" y="680" as="targetPoint" />
          </mxGeometry>
        </mxCell>
        <mxCell id="xMDHrjp0SGLHtv5pF6LK-81" value="" style="endArrow=classic;html=1;exitX=1;exitY=0.75;exitDx=0;exitDy=0;entryX=-0.067;entryY=0.393;entryDx=0;entryDy=0;entryPerimeter=0;edgeStyle=orthogonalEdgeStyle;" edge="1" parent="1" source="xMDHrjp0SGLHtv5pF6LK-1" target="xMDHrjp0SGLHtv5pF6LK-42">
          <mxGeometry relative="1" as="geometry">
            <mxPoint x="520" y="710" as="sourcePoint" />
            <mxPoint x="620" y="710" as="targetPoint" />
            <Array as="points">
              <mxPoint x="480" y="610" />
              <mxPoint x="480" y="770" />
            </Array>
          </mxGeometry>
        </mxCell>
        <mxCell id="xMDHrjp0SGLHtv5pF6LK-82" value="Dig" style="edgeLabel;resizable=0;html=1;align=center;verticalAlign=middle;" connectable="0" vertex="1" parent="xMDHrjp0SGLHtv5pF6LK-81">
          <mxGeometry relative="1" as="geometry">
            <mxPoint x="-30" y="-163.32999999999998" as="offset" />
          </mxGeometry>
        </mxCell>
        <mxCell id="xMDHrjp0SGLHtv5pF6LK-108" value="Dig" style="edgeLabel;html=1;align=center;verticalAlign=middle;resizable=0;points=[];" vertex="1" connectable="0" parent="xMDHrjp0SGLHtv5pF6LK-81">
          <mxGeometry x="0.8115" y="1" relative="1" as="geometry">
            <mxPoint as="offset" />
          </mxGeometry>
        </mxCell>
        <mxCell id="xMDHrjp0SGLHtv5pF6LK-83" value="" style="endArrow=none;dashed=1;html=1;dashPattern=1 3;strokeWidth=2;exitX=1;exitY=0.25;exitDx=0;exitDy=0;entryX=0;entryY=0.25;entryDx=0;entryDy=0;" edge="1" parent="1" source="xMDHrjp0SGLHtv5pF6LK-42" target="xMDHrjp0SGLHtv5pF6LK-36">
          <mxGeometry width="50" height="50" relative="1" as="geometry">
            <mxPoint x="590" y="770" as="sourcePoint" />
            <mxPoint x="640" y="720" as="targetPoint" />
          </mxGeometry>
        </mxCell>
        <mxCell id="xMDHrjp0SGLHtv5pF6LK-84" value="" style="endArrow=none;dashed=1;html=1;dashPattern=1 3;strokeWidth=2;entryX=1;entryY=0.25;entryDx=0;entryDy=0;exitX=0.5;exitY=0;exitDx=0;exitDy=0;edgeStyle=orthogonalEdgeStyle;" edge="1" parent="1" source="xMDHrjp0SGLHtv5pF6LK-61" target="xMDHrjp0SGLHtv5pF6LK-42">
          <mxGeometry width="50" height="50" relative="1" as="geometry">
            <mxPoint x="590" y="770" as="sourcePoint" />
            <mxPoint x="640" y="720" as="targetPoint" />
          </mxGeometry>
        </mxCell>
        <mxCell id="xMDHrjp0SGLHtv5pF6LK-86" value="" style="endArrow=none;dashed=1;html=1;dashPattern=1 3;strokeWidth=2;exitX=1;exitY=0.5;exitDx=0;exitDy=0;entryX=0.75;entryY=0;entryDx=0;entryDy=0;edgeStyle=orthogonalEdgeStyle;" edge="1" parent="1" source="xMDHrjp0SGLHtv5pF6LK-61" target="xMDHrjp0SGLHtv5pF6LK-21">
          <mxGeometry width="50" height="50" relative="1" as="geometry">
            <mxPoint x="590" y="770" as="sourcePoint" />
            <mxPoint x="640" y="720" as="targetPoint" />
          </mxGeometry>
        </mxCell>
        <mxCell id="xMDHrjp0SGLHtv5pF6LK-87" value="" style="endArrow=none;dashed=1;html=1;dashPattern=1 3;strokeWidth=2;exitX=1;exitY=0.25;exitDx=0;exitDy=0;entryX=0.5;entryY=0;entryDx=0;entryDy=0;edgeStyle=orthogonalEdgeStyle;" edge="1" parent="1" source="xMDHrjp0SGLHtv5pF6LK-41" target="xMDHrjp0SGLHtv5pF6LK-62">
          <mxGeometry width="50" height="50" relative="1" as="geometry">
            <mxPoint x="590" y="1050" as="sourcePoint" />
            <mxPoint x="640" y="1000" as="targetPoint" />
          </mxGeometry>
        </mxCell>
        <mxCell id="xMDHrjp0SGLHtv5pF6LK-89" value="" style="endArrow=none;dashed=1;html=1;dashPattern=1 3;strokeWidth=2;entryX=1;entryY=0.5;entryDx=0;entryDy=0;exitX=0.75;exitY=0;exitDx=0;exitDy=0;edgeStyle=orthogonalEdgeStyle;" edge="1" parent="1" source="xMDHrjp0SGLHtv5pF6LK-23" target="xMDHrjp0SGLHtv5pF6LK-62">
          <mxGeometry width="50" height="50" relative="1" as="geometry">
            <mxPoint x="590" y="1050" as="sourcePoint" />
            <mxPoint x="640" y="1000" as="targetPoint" />
          </mxGeometry>
        </mxCell>
        <mxCell id="xMDHrjp0SGLHtv5pF6LK-90" value="Step Down&lt;br&gt;+3.3 Vcc" style="rounded=0;whiteSpace=wrap;html=1;" vertex="1" parent="1">
          <mxGeometry x="300" y="1010" width="80" height="50" as="geometry" />
        </mxCell>
        <mxCell id="xMDHrjp0SGLHtv5pF6LK-91" value="" style="endArrow=none;dashed=1;html=1;dashPattern=1 3;strokeWidth=2;exitX=1;exitY=0.75;exitDx=0;exitDy=0;entryX=0.75;entryY=0;entryDx=0;entryDy=0;edgeStyle=orthogonalEdgeStyle;" edge="1" parent="1" source="xMDHrjp0SGLHtv5pF6LK-90" target="xMDHrjp0SGLHtv5pF6LK-46">
          <mxGeometry width="50" height="50" relative="1" as="geometry">
            <mxPoint x="550" y="970" as="sourcePoint" />
            <mxPoint x="600" y="920" as="targetPoint" />
          </mxGeometry>
        </mxCell>
        <mxCell id="xMDHrjp0SGLHtv5pF6LK-95" value="V BAt." style="edgeLabel;html=1;align=center;verticalAlign=middle;resizable=0;points=[];" vertex="1" connectable="0" parent="xMDHrjp0SGLHtv5pF6LK-91">
          <mxGeometry x="-0.563" y="-3" relative="1" as="geometry">
            <mxPoint as="offset" />
          </mxGeometry>
        </mxCell>
        <mxCell id="xMDHrjp0SGLHtv5pF6LK-93" value="" style="endArrow=none;dashed=1;html=1;entryX=0;entryY=0.25;entryDx=0;entryDy=0;exitX=1;exitY=0.25;exitDx=0;exitDy=0;" edge="1" parent="1" source="xMDHrjp0SGLHtv5pF6LK-90" target="xMDHrjp0SGLHtv5pF6LK-23">
          <mxGeometry width="50" height="50" relative="1" as="geometry">
            <mxPoint x="550" y="960" as="sourcePoint" />
            <mxPoint x="600" y="910" as="targetPoint" />
          </mxGeometry>
        </mxCell>
        <mxCell id="xMDHrjp0SGLHtv5pF6LK-104" value="3.3V" style="edgeLabel;html=1;align=center;verticalAlign=middle;resizable=0;points=[];" vertex="1" connectable="0" parent="xMDHrjp0SGLHtv5pF6LK-93">
          <mxGeometry x="-0.4467" y="1" relative="1" as="geometry">
            <mxPoint as="offset" />
          </mxGeometry>
        </mxCell>
        <mxCell id="xMDHrjp0SGLHtv5pF6LK-105" value="3.3V" style="edgeLabel;html=1;align=center;verticalAlign=middle;resizable=0;points=[];" vertex="1" connectable="0" parent="xMDHrjp0SGLHtv5pF6LK-93">
          <mxGeometry x="0.4668" y="-1" relative="1" as="geometry">
            <mxPoint as="offset" />
          </mxGeometry>
        </mxCell>
        <mxCell id="xMDHrjp0SGLHtv5pF6LK-94" value="" style="endArrow=none;dashed=1;html=1;entryX=0;entryY=0.25;entryDx=0;entryDy=0;exitX=1;exitY=0.25;exitDx=0;exitDy=0;edgeStyle=orthogonalEdgeStyle;" edge="1" parent="1" source="xMDHrjp0SGLHtv5pF6LK-90" target="xMDHrjp0SGLHtv5pF6LK-21">
          <mxGeometry width="50" height="50" relative="1" as="geometry">
            <mxPoint x="550" y="1060" as="sourcePoint" />
            <mxPoint x="600" y="1010" as="targetPoint" />
            <Array as="points">
              <mxPoint x="430" y="1023" />
              <mxPoint x="430" y="825" />
            </Array>
          </mxGeometry>
        </mxCell>
        <mxCell id="xMDHrjp0SGLHtv5pF6LK-99" value="3.3V" style="edgeLabel;html=1;align=center;verticalAlign=middle;resizable=0;points=[];" vertex="1" connectable="0" parent="xMDHrjp0SGLHtv5pF6LK-94">
          <mxGeometry x="0.1497" y="-1" relative="1" as="geometry">
            <mxPoint x="-15.829999999999998" y="-1" as="offset" />
          </mxGeometry>
        </mxCell>
        <mxCell id="xMDHrjp0SGLHtv5pF6LK-101" value="" style="endArrow=none;dashed=1;html=1;entryX=0;entryY=0.25;entryDx=0;entryDy=0;exitX=1;exitY=0.25;exitDx=0;exitDy=0;edgeStyle=orthogonalEdgeStyle;" edge="1" parent="1" source="xMDHrjp0SGLHtv5pF6LK-90" target="xMDHrjp0SGLHtv5pF6LK-19">
          <mxGeometry width="50" height="50" relative="1" as="geometry">
            <mxPoint x="550" y="810" as="sourcePoint" />
            <mxPoint x="600" y="760" as="targetPoint" />
            <Array as="points">
              <mxPoint x="430" y="1023" />
              <mxPoint x="430" y="626" />
            </Array>
          </mxGeometry>
        </mxCell>
        <mxCell id="xMDHrjp0SGLHtv5pF6LK-111" value="3.3V" style="edgeLabel;html=1;align=center;verticalAlign=middle;resizable=0;points=[];" vertex="1" connectable="0" parent="xMDHrjp0SGLHtv5pF6LK-101">
          <mxGeometry x="0.7224" y="2" relative="1" as="geometry">
            <mxPoint as="offset" />
          </mxGeometry>
        </mxCell>
        <mxCell id="xMDHrjp0SGLHtv5pF6LK-102" value="" style="endArrow=none;dashed=1;html=1;exitX=1;exitY=0.25;exitDx=0;exitDy=0;entryX=1;entryY=0.799;entryDx=0;entryDy=0;entryPerimeter=0;edgeStyle=orthogonalEdgeStyle;" edge="1" parent="1" source="xMDHrjp0SGLHtv5pF6LK-90" target="xMDHrjp0SGLHtv5pF6LK-1">
          <mxGeometry width="50" height="50" relative="1" as="geometry">
            <mxPoint x="550" y="980" as="sourcePoint" />
            <mxPoint x="600" y="930" as="targetPoint" />
            <Array as="points">
              <mxPoint x="430" y="1023" />
              <mxPoint x="430" y="624" />
            </Array>
          </mxGeometry>
        </mxCell>
        <mxCell id="xMDHrjp0SGLHtv5pF6LK-109" value="3.3V" style="edgeLabel;html=1;align=center;verticalAlign=middle;resizable=0;points=[];" vertex="1" connectable="0" parent="xMDHrjp0SGLHtv5pF6LK-102">
          <mxGeometry x="0.4955" y="2" relative="1" as="geometry">
            <mxPoint y="10" as="offset" />
          </mxGeometry>
        </mxCell>
        <mxCell id="xMDHrjp0SGLHtv5pF6LK-116" value="SD&lt;br&gt;(Igual que IRIS1)" style="whiteSpace=wrap;html=1;aspect=fixed;" vertex="1" parent="1">
          <mxGeometry x="250" y="160" width="80" height="80" as="geometry" />
        </mxCell>
        <mxCell id="xMDHrjp0SGLHtv5pF6LK-117" value="" style="endArrow=classic;startArrow=classic;html=1;exitX=0.602;exitY=-0.007;exitDx=0;exitDy=0;entryX=0.5;entryY=1;entryDx=0;entryDy=0;exitPerimeter=0;" edge="1" parent="1" source="xMDHrjp0SGLHtv5pF6LK-1" target="xMDHrjp0SGLHtv5pF6LK-116">
          <mxGeometry width="50" height="50" relative="1" as="geometry">
            <mxPoint x="340" y="390" as="sourcePoint" />
            <mxPoint x="390" y="340" as="targetPoint" />
          </mxGeometry>
        </mxCell>
        <mxCell id="xMDHrjp0SGLHtv5pF6LK-120" style="edgeStyle=orthogonalEdgeStyle;orthogonalLoop=1;jettySize=auto;html=1;exitX=0.75;exitY=0;exitDx=0;exitDy=0;entryX=0.75;entryY=1;entryDx=0;entryDy=0;" edge="1" parent="1" source="xMDHrjp0SGLHtv5pF6LK-118" target="xMDHrjp0SGLHtv5pF6LK-1">
          <mxGeometry relative="1" as="geometry" />
        </mxCell>
        <mxCell id="xMDHrjp0SGLHtv5pF6LK-121" value="Rx" style="edgeLabel;html=1;align=center;verticalAlign=middle;resizable=0;points=[];" vertex="1" connectable="0" parent="xMDHrjp0SGLHtv5pF6LK-120">
          <mxGeometry x="-0.0914" relative="1" as="geometry">
            <mxPoint as="offset" />
          </mxGeometry>
        </mxCell>
        <mxCell id="xMDHrjp0SGLHtv5pF6LK-118" value="FT232RL&lt;br&gt;&lt;font style=&quot;font-size: 8px&quot;&gt;(Casi como IRIS 1&lt;br&gt;Cambia VccIO a 3.3V)&lt;/font&gt;" style="rounded=0;whiteSpace=wrap;html=1;" vertex="1" parent="1">
          <mxGeometry x="240" y="720" width="120" height="60" as="geometry" />
        </mxCell>
        <mxCell id="xMDHrjp0SGLHtv5pF6LK-119" value="" style="endArrow=classic;html=1;entryX=0.583;entryY=-0.002;entryDx=0;entryDy=0;entryPerimeter=0;" edge="1" parent="1" target="xMDHrjp0SGLHtv5pF6LK-118">
          <mxGeometry width="50" height="50" relative="1" as="geometry">
            <mxPoint x="310" y="681" as="sourcePoint" />
            <mxPoint x="390" y="730" as="targetPoint" />
          </mxGeometry>
        </mxCell>
        <mxCell id="xMDHrjp0SGLHtv5pF6LK-122" value="Tx" style="edgeLabel;html=1;align=center;verticalAlign=middle;resizable=0;points=[];" vertex="1" connectable="0" parent="xMDHrjp0SGLHtv5pF6LK-119">
          <mxGeometry x="-0.0689" relative="1" as="geometry">
            <mxPoint as="offset" />
          </mxGeometry>
        </mxCell>
        <mxCell id="xMDHrjp0SGLHtv5pF6LK-125" value="USB" style="whiteSpace=wrap;html=1;" vertex="1" parent="1">
          <mxGeometry x="240" y="840" width="120" height="60" as="geometry" />
        </mxCell>
        <mxCell id="xMDHrjp0SGLHtv5pF6LK-126" value="" style="endArrow=none;dashed=1;html=1;exitX=0.25;exitY=0;exitDx=0;exitDy=0;entryX=0.25;entryY=1;entryDx=0;entryDy=0;" edge="1" parent="1" source="xMDHrjp0SGLHtv5pF6LK-125" target="xMDHrjp0SGLHtv5pF6LK-118">
          <mxGeometry width="50" height="50" relative="1" as="geometry">
            <mxPoint x="340" y="830" as="sourcePoint" />
            <mxPoint x="390" y="780" as="targetPoint" />
          </mxGeometry>
        </mxCell>
        <mxCell id="xMDHrjp0SGLHtv5pF6LK-127" value="5Vcc" style="edgeLabel;html=1;align=center;verticalAlign=middle;resizable=0;points=[];" vertex="1" connectable="0" parent="xMDHrjp0SGLHtv5pF6LK-126">
          <mxGeometry x="0.319" y="1" relative="1" as="geometry">
            <mxPoint y="9.43" as="offset" />
          </mxGeometry>
        </mxCell>
        <mxCell id="xMDHrjp0SGLHtv5pF6LK-130" value="" style="endArrow=classic;startArrow=classic;html=1;exitX=0.75;exitY=0;exitDx=0;exitDy=0;entryX=0.75;entryY=1;entryDx=0;entryDy=0;" edge="1" parent="1" source="xMDHrjp0SGLHtv5pF6LK-125" target="xMDHrjp0SGLHtv5pF6LK-118">
          <mxGeometry width="50" height="50" relative="1" as="geometry">
            <mxPoint x="340" y="830" as="sourcePoint" />
            <mxPoint x="390" y="780" as="targetPoint" />
          </mxGeometry>
        </mxCell>
        <mxCell id="xMDHrjp0SGLHtv5pF6LK-134" value="D+" style="edgeLabel;html=1;align=center;verticalAlign=middle;resizable=0;points=[];" vertex="1" connectable="0" parent="xMDHrjp0SGLHtv5pF6LK-130">
          <mxGeometry x="-0.2333" y="-1" relative="1" as="geometry">
            <mxPoint as="offset" />
          </mxGeometry>
        </mxCell>
        <mxCell id="xMDHrjp0SGLHtv5pF6LK-131" value="" style="endArrow=classic;startArrow=classic;html=1;exitX=0.75;exitY=0;exitDx=0;exitDy=0;entryX=0.75;entryY=1;entryDx=0;entryDy=0;" edge="1" parent="1">
          <mxGeometry width="50" height="50" relative="1" as="geometry">
            <mxPoint x="310" y="840" as="sourcePoint" />
            <mxPoint x="310" y="780" as="targetPoint" />
          </mxGeometry>
        </mxCell>
        <mxCell id="xMDHrjp0SGLHtv5pF6LK-133" value="D-" style="edgeLabel;html=1;align=center;verticalAlign=middle;resizable=0;points=[];" vertex="1" connectable="0" parent="xMDHrjp0SGLHtv5pF6LK-131">
          <mxGeometry x="-0.1762" y="1" relative="1" as="geometry">
            <mxPoint as="offset" />
          </mxGeometry>
        </mxCell>
        <mxCell id="xMDHrjp0SGLHtv5pF6LK-139" style="edgeStyle=orthogonalEdgeStyle;orthogonalLoop=1;jettySize=auto;html=1;exitX=0.75;exitY=0;exitDx=0;exitDy=0;entryX=0.25;entryY=1;entryDx=0;entryDy=0;" edge="1" parent="1" source="xMDHrjp0SGLHtv5pF6LK-136" target="xMDHrjp0SGLHtv5pF6LK-1">
          <mxGeometry relative="1" as="geometry" />
        </mxCell>
        <mxCell id="xMDHrjp0SGLHtv5pF6LK-141" value="Dig.&lt;br&gt;InterrupciÃ³n" style="edgeLabel;html=1;align=center;verticalAlign=middle;resizable=0;points=[];" vertex="1" connectable="0" parent="xMDHrjp0SGLHtv5pF6LK-139">
          <mxGeometry x="0.2552" y="1" relative="1" as="geometry">
            <mxPoint as="offset" />
          </mxGeometry>
        </mxCell>
        <mxCell id="xMDHrjp0SGLHtv5pF6LK-136" value="Circuito&lt;br&gt;Opto" style="rounded=1;whiteSpace=wrap;html=1;" vertex="1" parent="1">
          <mxGeometry x="130" y="760" width="80" height="40" as="geometry" />
        </mxCell>
        <mxCell id="xMDHrjp0SGLHtv5pF6LK-142" value="DB9&lt;br&gt;Sunrise III" style="rounded=0;whiteSpace=wrap;html=1;" vertex="1" parent="1">
          <mxGeometry x="130" y="840" width="80" height="60" as="geometry" />
        </mxCell>
        <mxCell id="xMDHrjp0SGLHtv5pF6LK-143" value="" style="endArrow=none;html=1;exitX=0.25;exitY=0;exitDx=0;exitDy=0;entryX=0.25;entryY=1;entryDx=0;entryDy=0;" edge="1" parent="1" source="xMDHrjp0SGLHtv5pF6LK-142" target="xMDHrjp0SGLHtv5pF6LK-136">
          <mxGeometry width="50" height="50" relative="1" as="geometry">
            <mxPoint x="120" y="840" as="sourcePoint" />
            <mxPoint x="160" y="800" as="targetPoint" />
          </mxGeometry>
        </mxCell>
        <mxCell id="xMDHrjp0SGLHtv5pF6LK-147" value="24V" style="edgeLabel;html=1;align=center;verticalAlign=middle;resizable=0;points=[];" vertex="1" connectable="0" parent="xMDHrjp0SGLHtv5pF6LK-143">
          <mxGeometry x="0.1539" relative="1" as="geometry">
            <mxPoint as="offset" />
          </mxGeometry>
        </mxCell>
        <mxCell id="xMDHrjp0SGLHtv5pF6LK-145" value="" style="endArrow=none;html=1;entryX=0.579;entryY=1.011;entryDx=0;entryDy=0;entryPerimeter=0;" edge="1" parent="1" target="xMDHrjp0SGLHtv5pF6LK-136">
          <mxGeometry width="50" height="50" relative="1" as="geometry">
            <mxPoint x="176" y="839" as="sourcePoint" />
            <mxPoint x="170" y="790" as="targetPoint" />
          </mxGeometry>
        </mxCell>
        <mxCell id="xMDHrjp0SGLHtv5pF6LK-146" value="0V" style="edgeLabel;html=1;align=center;verticalAlign=middle;resizable=0;points=[];" vertex="1" connectable="0" parent="xMDHrjp0SGLHtv5pF6LK-145">
          <mxGeometry x="0.1552" relative="1" as="geometry">
            <mxPoint as="offset" />
          </mxGeometry>
        </mxCell>
        <mxCell id="xMDHrjp0SGLHtv5pF6LK-149" value="ICSP" style="rounded=0;whiteSpace=wrap;html=1;" vertex="1" parent="1">
          <mxGeometry x="220" y="260" width="50" height="50" as="geometry" />
        </mxCell>
        <mxCell id="xMDHrjp0SGLHtv5pF6LK-150" value="" style="endArrow=classic;startArrow=classic;html=1;entryX=0.5;entryY=1;entryDx=0;entryDy=0;" edge="1" parent="1" target="xMDHrjp0SGLHtv5pF6LK-149">
          <mxGeometry width="50" height="50" relative="1" as="geometry">
            <mxPoint x="245" y="398" as="sourcePoint" />
            <mxPoint x="450" y="330" as="targetPoint" />
          </mxGeometry>
        </mxCell>
        <mxCell id="xMDHrjp0SGLHtv5pF6LK-152" style="edgeStyle=orthogonalEdgeStyle;orthogonalLoop=1;jettySize=auto;html=1;exitX=0.636;exitY=1;exitDx=0;exitDy=0;entryX=0.25;entryY=0;entryDx=0;entryDy=0;exitPerimeter=0;" edge="1" parent="1" source="xMDHrjp0SGLHtv5pF6LK-151" target="xMDHrjp0SGLHtv5pF6LK-1">
          <mxGeometry relative="1" as="geometry" />
        </mxCell>
        <mxCell id="xMDHrjp0SGLHtv5pF6LK-151" value="BaterÃ­as" style="rounded=0;whiteSpace=wrap;html=1;" vertex="1" parent="1">
          <mxGeometry x="120" y="160" width="110" height="80" as="geometry" />
        </mxCell>
        <mxCell id="xMDHrjp0SGLHtv5pF6LK-155" style="edgeStyle=orthogonalEdgeStyle;orthogonalLoop=1;jettySize=auto;html=1;exitX=1;exitY=0.5;exitDx=0;exitDy=0;entryX=0.25;entryY=0;entryDx=0;entryDy=0;" edge="1" parent="1" source="xMDHrjp0SGLHtv5pF6LK-154" target="xMDHrjp0SGLHtv5pF6LK-1">
          <mxGeometry relative="1" as="geometry" />
        </mxCell>
        <mxCell id="xMDHrjp0SGLHtv5pF6LK-157" value="Entradas&lt;br&gt;AnalÃ³gicas" style="edgeLabel;html=1;align=center;verticalAlign=middle;resizable=0;points=[];" vertex="1" connectable="0" parent="xMDHrjp0SGLHtv5pF6LK-155">
          <mxGeometry x="0.066" y="-1" relative="1" as="geometry">
            <mxPoint y="7.86" as="offset" />
          </mxGeometry>
        </mxCell>
        <mxCell id="xMDHrjp0SGLHtv5pF6LK-154" value="Temperatura" style="rounded=0;whiteSpace=wrap;html=1;" vertex="1" parent="1">
          <mxGeometry x="80" y="260" width="80" height="50" as="geometry" />
        </mxCell>
        <mxCell id="xMDHrjp0SGLHtv5pF6LK-158" value="LED" style="rounded=0;whiteSpace=wrap;html=1;" vertex="1" parent="1">
          <mxGeometry x="310" y="260" width="40" height="50" as="geometry" />
        </mxCell>
      </root>
    </mxGraphModel>
  </diagram>
</mxfile>
